<?xml version="1.0" standalone="no"?>
<!DOCTYPE svg PUBLIC "-//W3C//DTD SVG 20010904//EN"
 "http://www.w3.org/TR/2001/REC-SVG-20010904/DTD/svg10.dtd">
<svg version="1.0" xmlns="http://www.w3.org/2000/svg"
 width="990.000000pt" height="990.000000pt" viewBox="0 0 990.000000 990.000000"
 preserveAspectRatio="xMidYMid meet">
<metadata>
Created by potrace 1.14, written by Peter Selinger 2001-2017
</metadata>
<g transform="translate(0.000000,990.000000) scale(0.100000,-0.100000)"
fill="#000000" stroke="none">
<path d="M4516 9583 c-1 -1 -40 -5 -86 -8 -95 -6 -99 -6 -189 -30 -80 -21
-237 -96 -276 -133 -36 -34 -115 -127 -138 -164 -50 -81 -117 -291 -132 -413
-3 -27 -8 -68 -11 -90 -4 -22 -7 -67 -8 -100 -1 -34 -6 -67 -11 -74 -5 -9 -4
-12 2 -8 6 4 10 -15 11 -46 1 -29 4 -63 7 -77 3 -14 10 -52 16 -85 6 -33 22
-100 35 -150 14 -49 26 -97 29 -105 17 -66 104 -242 187 -378 31 -51 35 -64
23 -68 -20 -8 -19 -24 1 -24 13 0 10 -7 -11 -27 -47 -47 -116 -156 -103 -164
11 -7 35 -63 45 -106 8 -34 18 -28 33 17 12 35 40 66 89 94 10 7 11 3 6 -15
-16 -50 -1 -185 34 -299 14 -45 14 -50 -3 -50 -21 0 -159 -112 -187 -151 -60
-84 -84 -135 -124 -264 -48 -156 -52 -251 -19 -459 19 -119 30 -164 58 -223
53 -112 132 -216 248 -328 132 -129 132 -129 156 -116 24 13 60 72 67 110 3
15 16 54 31 85 22 49 29 56 47 50 41 -13 76 -11 128 6 31 11 60 15 69 11 29
-15 157 -39 222 -40 14 -1 16 -8 11 -36 -5 -28 -2 -35 11 -35 10 0 15 -4 11
-9 -3 -5 -1 -12 5 -16 6 -4 10 -52 10 -114 0 -96 -2 -111 -22 -137 -12 -16
-25 -31 -28 -34 -21 -17 -78 -115 -123 -210 l-52 -110 -90 68 c-100 74 -212
152 -220 152 -6 0 1 -118 11 -201 3 -30 7 -65 9 -79 5 -44 16 -94 31 -148 9
-30 14 -55 12 -56 -1 -2 -35 -20 -75 -41 l-72 -38 -26 25 c-51 52 -219 123
-348 149 -28 6 -63 13 -76 15 -13 3 -85 14 -160 24 -75 11 -143 22 -151 24 -8
2 -34 7 -57 11 -39 7 -43 10 -44 39 -3 68 2 153 11 193 16 69 6 78 -46 42 -98
-67 -261 -120 -374 -122 -122 -1 -193 40 -272 157 -40 60 -73 85 -113 87 -52
1 -148 -12 -181 -26 -17 -7 -48 -13 -67 -13 -19 0 -49 -3 -65 -7 -18 -4 -33
-2 -37 5 -4 6 -15 8 -26 5 -13 -4 -19 -2 -19 9 0 8 -12 28 -26 45 -32 39 -73
41 -118 6 -30 -23 -35 -24 -46 -10 -26 31 -48 36 -84 21 -64 -27 -71 -83 -15
-112 17 -8 36 -29 43 -46 21 -49 7 -82 -51 -121 -56 -37 -54 -38 -57 18 -1 29
-30 25 -34 -5 -6 -45 -31 -87 -60 -99 -15 -6 -32 -21 -37 -33 -7 -14 -69 -53
-175 -108 -91 -47 -183 -97 -205 -110 -22 -13 -74 -41 -115 -63 -222 -117
-245 -132 -266 -175 -26 -55 -24 -67 15 -112 37 -43 39 -43 108 -45 39 -1 75
-5 81 -9 6 -4 32 -9 57 -11 35 -4 54 0 73 14 25 17 119 71 240 138 26 14 59
34 74 44 14 11 28 19 31 19 2 0 56 29 118 65 63 36 117 65 120 65 3 0 5 -19 4
-42 -2 -58 11 -84 52 -103 27 -13 37 -14 49 -5 8 7 14 8 14 3 0 -5 14 -10 30
-11 17 -1 30 2 30 8 0 5 6 7 13 5 6 -3 23 1 37 8 24 12 25 11 35 -22 10 -32
15 -37 62 -47 29 -6 74 -14 102 -17 27 -3 61 -13 75 -22 38 -25 134 -12 295
41 74 24 148 44 164 44 36 0 131 -46 166 -80 14 -14 57 -59 95 -98 38 -40 74
-71 81 -69 11 5 14 -2 51 -94 10 -26 23 -45 29 -43 5 2 21 -24 35 -59 17 -41
33 -65 48 -72 13 -6 40 -41 63 -82 22 -40 48 -74 57 -77 29 -9 55 -65 57 -120
3 -75 15 -135 29 -143 7 -5 19 -25 26 -46 6 -21 29 -58 50 -82 21 -24 50 -75
65 -113 28 -71 87 -157 70 -102 -4 14 -7 41 -6 60 1 35 9 180 10 190 1 3 11 6
24 6 19 1 26 -10 51 -88 31 -92 68 -158 89 -158 7 0 32 -39 55 -86 24 -48 60
-105 82 -128 21 -22 66 -71 101 -108 35 -39 70 -68 81 -68 18 0 17 4 -10 38
-60 77 -119 191 -113 220 3 15 -47 162 -61 177 -13 15 -9 28 5 16 21 -17 28
-1 12 29 -8 15 -17 42 -20 60 -3 19 -8 36 -10 40 -2 4 -7 30 -10 59 -4 36 -3
51 4 46 6 -3 11 -12 11 -18 0 -49 140 -270 165 -261 7 3 25 -23 43 -63 31 -69
94 -153 115 -153 7 0 37 -23 67 -51 66 -61 108 -89 134 -89 19 0 19 1 -2 23
-11 12 -39 54 -60 94 -38 69 -44 95 -15 71 20 -17 41 6 24 26 -7 8 -28 43 -47
78 -74 136 -79 149 -66 157 9 5 9 16 2 41 -6 19 -10 48 -10 65 0 25 11 12 65
-80 69 -116 104 -159 112 -138 2 7 51 -33 110 -92 109 -107 153 -136 180 -119
11 7 32 1 72 -18 67 -33 122 -50 176 -53 l39 -3 -34 31 c-100 87 -143 132
-127 135 10 2 17 6 17 9 0 2 -29 36 -64 75 -40 43 -62 76 -59 86 2 10 -6 28
-19 42 -32 34 -63 78 -88 122 -21 40 -16 50 11 21 22 -25 127 -115 157 -134
13 -9 32 -14 42 -12 12 3 40 -13 78 -45 65 -53 207 -145 301 -192 54 -28 58
-33 69 -77 13 -59 8 -68 -92 -168 -78 -78 -150 -129 -271 -195 -146 -78 -204
-126 -253 -209 -31 -54 -35 -137 -9 -223 15 -49 21 -58 50 -67 17 -5 45 -9 60
-9 36 1 36 0 46 -61 4 -28 16 -57 25 -64 18 -13 23 -64 30 -287 8 -220 23
-463 32 -508 4 -18 9 -21 30 -16 15 4 36 1 51 -7 22 -12 27 -11 37 2 6 9 20
21 32 27 17 9 20 21 22 89 2 85 11 237 17 293 2 19 7 69 11 110 3 41 8 86 9
100 1 14 6 60 10 103 4 42 11 80 16 83 5 3 9 36 9 74 0 62 2 68 19 65 25 -5
82 31 88 55 4 13 19 23 47 30 136 34 173 46 235 75 37 18 105 60 151 94 76 57
86 61 124 57 22 -3 74 -8 114 -12 70 -7 75 -9 108 -48 20 -23 56 -80 81 -129
30 -59 52 -89 67 -93 11 -3 33 -25 48 -50 29 -47 71 -63 63 -24 -5 27 7 25 35
-5 44 -47 62 -18 28 47 -6 14 -5 16 7 12 8 -4 15 -12 15 -20 0 -8 3 -14 8 -14
4 0 22 -24 40 -53 52 -82 142 -133 142 -81 0 12 13 5 44 -24 28 -26 62 -46 90
-53 48 -12 44 -7 85 -124 19 -58 41 -133 46 -165 1 -8 -2 -25 -6 -37 -16 -42
-20 -111 -10 -148 15 -56 -3 -68 -169 -118 -146 -44 -153 -44 -200 -4 -83 71
-199 61 -224 -20 -4 -11 -13 -24 -21 -27 -17 -6 -99 -128 -119 -177 -10 -23
-11 -40 -5 -50 8 -12 11 -12 19 2 5 9 36 31 69 47 l58 31 10 -32 c10 -36 40
-54 93 -59 50 -3 126 11 139 26 6 7 54 24 107 36 94 23 97 23 110 5 19 -26 19
-27 -24 -76 -38 -43 -39 -45 -37 -119 3 -134 49 -195 138 -183 22 3 37 0 37
-6 0 -5 5 -22 10 -37 10 -25 11 -26 30 -9 10 9 28 37 40 62 14 30 30 47 50 54
16 6 36 21 44 34 22 34 31 100 17 133 -8 19 -9 36 -2 53 6 16 5 31 -1 43 -7
12 -7 26 1 42 15 34 28 30 35 -11 7 -38 36 -71 75 -86 13 -5 21 -15 18 -23
-10 -26 24 -74 71 -99 28 -15 52 -37 59 -54 26 -59 139 -87 236 -59 48 14 60
14 102 2 26 -8 58 -25 71 -37 41 -38 53 -21 49 68 -4 83 -22 137 -61 188 l-23
31 32 -3 c105 -11 117 -10 165 13 53 25 87 22 138 -11 26 -17 54 -20 54 -5 0
28 -49 107 -120 190 -17 19 -45 57 -63 84 -24 37 -42 53 -71 63 -52 17 -200
21 -219 5 -8 -7 -35 -18 -60 -26 -43 -13 -50 -12 -84 5 -21 11 -62 28 -91 39
-29 11 -64 27 -78 36 -26 18 -87 135 -127 247 -26 70 -21 81 21 51 22 -15 24
-15 29 5 5 21 6 21 59 -9 67 -38 127 -52 140 -34 7 11 16 10 44 -4 71 -36 227
-75 380 -97 25 -4 74 -15 109 -26 75 -22 131 -25 131 -6 0 18 148 19 245 3 39
-7 93 -12 120 -11 54 1 188 16 194 21 1 1 -14 6 -35 9 -88 15 -173 45 -168 59
6 15 -29 29 -101 41 -22 4 -46 12 -53 17 -7 6 -43 16 -80 22 -52 8 -66 15 -64
27 1 11 -12 20 -45 30 -25 8 -48 20 -51 27 -3 10 18 12 99 7 264 -14 332 -15
345 -4 8 6 36 13 64 15 27 2 62 10 78 18 30 16 68 19 159 16 78 -3 143 15 143
40 0 14 -64 35 -110 36 -25 1 -63 9 -84 18 -22 10 -61 18 -87 19 -51 2 -56 6
-37 25 20 20 2 25 -79 22 -129 -5 -253 4 -253 20 0 4 11 13 25 20 33 18 32 40
-2 40 -93 2 -237 24 -258 40 -5 5 -27 11 -47 15 -38 7 -47 18 -27 30 17 11 4
29 -22 31 -13 0 -37 4 -54 7 -16 4 -50 9 -74 12 -90 11 -233 75 -302 135 -20
18 -21 21 -4 15 30 -11 124 -34 170 -41 22 -4 51 -9 65 -11 67 -12 150 -14
150 -4 0 6 -7 11 -15 11 -8 0 -15 5 -15 11 0 7 32 10 93 9 144 -3 147 -3 147
20 0 12 7 20 18 21 38 2 74 11 138 35 37 14 108 33 159 43 99 20 180 62 210
107 16 26 16 26 -7 18 -62 -19 -92 -22 -102 -10 -9 11 -30 10 -112 -3 -81 -13
-110 -14 -145 -5 -25 6 -52 10 -62 8 -19 -3 -22 7 -6 23 20 20 -8 24 -51 7
-30 -12 -54 -15 -93 -9 -84 11 -128 11 -209 0 -43 -7 -78 -8 -78 -3 0 4 5 8
10 8 23 0 8 18 -20 23 -41 9 -38 23 7 32 47 8 75 23 68 35 -3 5 -18 6 -33 3
-54 -12 -126 -3 -215 26 -51 16 -125 39 -165 51 -70 20 -73 22 -58 39 15 17
14 19 -25 34 -32 13 -39 20 -35 35 5 13 0 22 -16 29 -13 6 -42 27 -65 48 -39
34 -41 38 -28 58 7 12 22 50 33 83 11 34 41 98 67 143 49 86 52 114 12 127
-54 18 -120 -3 -157 -48 -11 -14 -23 -17 -47 -12 -18 4 -33 9 -33 13 0 3 22
25 49 48 65 56 175 224 228 348 l43 100 -1 -50 c0 -27 -6 -83 -13 -123 -10
-59 -10 -75 1 -83 12 -11 11 -82 -3 -166 -3 -20 -1 -33 6 -33 15 0 12 -78 -6
-140 -9 -30 -16 -66 -16 -80 1 -14 1 -38 2 -53 1 -16 -2 -43 -6 -60 -12 -54
19 -17 69 86 81 163 99 221 107 334 3 56 9 106 13 109 4 4 7 2 7 -5 0 -7 4
-10 8 -7 5 3 7 45 5 93 -3 93 7 150 26 146 6 -2 11 5 11 14 0 9 2 14 5 11 6
-6 9 -19 19 -90 8 -54 20 -61 34 -20 10 27 10 27 10 -8 0 -19 -3 -48 -7 -65
-4 -16 -2 -50 4 -75 7 -25 10 -62 9 -82 -3 -35 9 -53 18 -26 9 25 14 -316 6
-400 -2 -29 -1 -55 2 -57 10 -6 85 131 104 188 9 26 16 58 16 70 0 16 3 19 9
8 12 -19 18 4 27 103 3 44 12 86 20 93 7 7 11 23 9 36 -2 12 -6 58 -9 102 -6
69 -5 77 7 57 25 -42 25 -11 1 61 -36 109 -65 291 -50 322 6 14 14 25 17 25 8
0 26 -45 35 -85 12 -60 26 -95 35 -90 5 4 9 16 9 28 0 42 32 -23 45 -93 3 -13
9 -26 14 -29 5 -4 20 -35 34 -71 13 -36 36 -88 49 -117 16 -33 22 -55 16 -61
-6 -6 -6 -12 1 -16 6 -4 11 -2 11 4 0 6 6 17 13 25 22 21 20 228 -3 295 -18
54 -18 54 1 30 21 -28 23 -25 10 16 -21 64 -22 84 -6 78 10 -4 6 13 -16 62
-17 37 -38 78 -46 91 -16 24 -6 32 15 11 6 -6 14 -9 18 -5 3 3 -11 28 -32 54
-61 77 -63 80 -31 60 32 -21 51 -14 42 14 -4 11 -8 33 -10 49 -2 15 -8 37 -14
47 -6 10 -30 65 -55 123 -24 58 -58 135 -75 172 -17 36 -31 69 -31 73 0 4 -18
45 -41 90 -34 69 -56 98 -140 179 -189 182 -237 215 -427 293 -146 59 -229 98
-289 134 -58 34 -143 124 -213 224 -82 116 -218 281 -269 328 -70 63 -245 141
-385 172 -116 25 -197 26 -296 3 -8 -2 -16 9 -20 30 -6 26 -4 35 11 43 11 5
19 20 19 33 0 12 3 26 7 30 4 4 8 21 8 37 1 28 -12 43 -94 106 -11 8 28 32 76
47 50 17 80 46 46 46 -40 0 2 13 54 17 32 2 72 8 88 14 17 5 50 12 75 15 119
15 329 83 391 127 85 59 238 207 273 265 28 47 54 121 49 142 -1 3 -4 31 -7
63 -7 68 -24 112 -63 164 -35 49 -114 126 -187 183 -114 90 -316 299 -316 328
0 6 -3 12 -7 12 -5 0 -21 27 -38 60 l-29 60 20 27 c11 16 31 50 44 76 29 58
98 135 275 312 72 72 149 153 170 180 22 28 47 55 56 62 38 29 71 85 74 128 3
41 1 47 -29 70 -31 24 -99 43 -210 59 -21 4 -41 8 -45 10 -12 8 -137 18 -206
17 -157 -2 -248 -12 -354 -41 -24 -6 -47 -8 -51 -3 -12 12 -73 124 -125 228
-75 149 -75 148 -165 219 -76 60 -81 62 -230 119 -148 57 -365 110 -540 132
-51 7 -338 13 -344 8z m1179 -3133 c8 -13 -25 -13 -45 0 -12 8 -9 10 12 10 15
0 30 -4 33 -10z m-1080 -450 c-3 -5 -12 -10 -18 -10 -7 0 -6 4 3 10 19 12 23
12 15 0z m-2515 -621 c0 -6 -6 -9 -14 -6 -11 4 -14 -1 -11 -21 1 -15 -2 -35
-7 -45 -13 -25 -59 -19 -74 10 -6 13 -14 20 -19 15 -12 -10 6 20 23 41 17 19
102 25 102 6z m-194 -28 c25 -50 -33 -83 -71 -41 -17 18 -17 21 -1 45 21 32
55 30 72 -4z m92 -691 c12 -1 10 -5 -8 -15 -34 -19 -40 -19 -40 6 0 15 4 19
16 15 9 -3 23 -6 32 -6z"/>
<path d="M2012 5368 c-28 -28 3 -83 33 -58 20 16 19 56 -1 64 -20 8 -18 8 -32
-6z"/>
<path d="M1855 5356 c-16 -12 -18 -18 -9 -33 6 -10 18 -19 27 -21 21 -4 33 36
15 54 -12 12 -17 12 -33 0z"/>
</g>
</svg>
